<?xml version="1.0" encoding="UTF-8" standalone="no"?>
<svg
   xmlns:dc="http://purl.org/dc/elements/1.1/"
   xmlns:cc="http://creativecommons.org/ns#"
   xmlns:rdf="http://www.w3.org/1999/02/22-rdf-syntax-ns#"
   xmlns:svg="http://www.w3.org/2000/svg"
   xmlns="http://www.w3.org/2000/svg"
   xmlns:sodipodi="http://sodipodi.sourceforge.net/DTD/sodipodi-0.dtd"
   xmlns:inkscape="http://www.inkscape.org/namespaces/inkscape"
   viewBox="0 0 24 24"
   width="24"
   height="24"
   version="1.1"
   id="svg4"
   sodipodi:docname="icon-hashtag.svg"
   inkscape:version="1.0.1 (1.0.1+r73)">
  <metadata
     id="metadata10">
    <rdf:RDF>
      <cc:Work
         rdf:about="">
        <dc:format>image/svg+xml</dc:format>
        <dc:type
           rdf:resource="http://purl.org/dc/dcmitype/StillImage" />
      </cc:Work>
    </rdf:RDF>
  </metadata>
  <defs
     id="defs8" />
  <sodipodi:namedview
     pagecolor="#ffffff"
     bordercolor="#666666"
     borderopacity="1"
     objecttolerance="10"
     gridtolerance="10"
     guidetolerance="10"
     inkscape:pageopacity="0"
     inkscape:pageshadow="2"
     inkscape:window-width="1920"
     inkscape:window-height="1022"
     id="namedview6"
     showgrid="false"
     inkscape:zoom="35.916667"
     inkscape:cx="7.2807425"
     inkscape:cy="12"
     inkscape:window-x="1920"
     inkscape:window-y="0"
     inkscape:window-maximized="1"
     inkscape:current-layer="svg4" />
  <path
     class="heroicon-ui"
     d="m 11.03,7.9999021 h 3.94 l 1.06,-4.239916 a 1,0.99998018 0 1 1 1.94,0.4799905 L 17.03,7.9999021 H 20 a 1,0.99998018 0 0 1 0,1.9999603 h -3.47 l -1,3.9999206 H 18 a 1.0000003,0.9999805 0 1 1 0,1.999961 h -2.97 l -1.06,4.249915 a 1.0004624,1.0004426 0 1 1 -1.94,-0.48999 l 0.94,-3.759925 H 9.03 L 7.97,20.249659 A 1.0004624,1.0004426 0 1 1 6.03,19.759669 L 6.9700001,15.999744 H 4 a 1.0000003,0.9999805 0 0 1 0,-1.999961 h 3.47 l 1,-3.9999206 H 6.0000001 a 1,0.99998018 0 0 1 0,-1.9999603 h 2.97 L 10.03,3.7599861 a 1,0.99998018 0 1 1 1.94,0.4799905 z M 10.53,9.9998624 9.5300001,13.999783 H 13.47 l 1,-3.9999206 z"
     id="path2"
     style="fill:#3399cc;stroke-width:0.999989;fill-opacity:1" />
</svg>
