<?xml version="1.0" encoding="UTF-8" standalone="no"?>
<svg
   xmlns:dc="http://purl.org/dc/elements/1.1/"
   xmlns:cc="http://creativecommons.org/ns#"
   xmlns:rdf="http://www.w3.org/1999/02/22-rdf-syntax-ns#"
   xmlns:svg="http://www.w3.org/2000/svg"
   xmlns="http://www.w3.org/2000/svg"
   xmlns:sodipodi="http://sodipodi.sourceforge.net/DTD/sodipodi-0.dtd"
   xmlns:inkscape="http://www.inkscape.org/namespaces/inkscape"
   id="Layer_1"
   style="enable-background:new 0 0 1000 1000;"
   version="1.1"
   viewBox="0 0 1000 1000"
   xml:space="preserve"
   sodipodi:docname="linkedin-black-light.svg"
   inkscape:version="1.0.1 (1.0.1+r73)"><metadata
     id="metadata913"><rdf:RDF><cc:Work
         rdf:about=""><dc:format>image/svg+xml</dc:format><dc:type
           rdf:resource="http://purl.org/dc/dcmitype/StillImage" /><dc:title></dc:title></cc:Work></rdf:RDF></metadata><defs
     id="defs911" /><sodipodi:namedview
     pagecolor="#ffffff"
     bordercolor="#666666"
     borderopacity="1"
     objecttolerance="10"
     gridtolerance="10"
     guidetolerance="10"
     inkscape:pageopacity="0"
     inkscape:pageshadow="2"
     inkscape:window-width="1920"
     inkscape:window-height="1022"
     id="namedview909"
     showgrid="false"
     inkscape:zoom="0.83"
     inkscape:cx="500"
     inkscape:cy="403.61446"
     inkscape:window-x="1920"
     inkscape:window-y="0"
     inkscape:window-maximized="1"
     inkscape:current-layer="g904" /><style
     type="text/css"
     id="style892">
	.st0{fill:#FFFFFF;}
</style><g
     id="g906"><path
       d="M500,1000L500,1000C223.9,1000,0,776.1,0,500l0,0C0,223.9,223.9,0,500,0l0,0c276.1,0,500,223.9,500,500l0,0   C1000,776.1,776.1,1000,500,1000z"
       id="path896" /><g
       id="g904"><g
         id="g902"
         style="opacity:1"><path
           class="st0"
           d="M184.2,387.3h132.9V815H184.2V387.3z M250.7,174.7c42.5,0,77,34.5,77,77.1s-34.5,77.1-77,77.1     c-42.6,0-77.1-34.5-77.1-77.1C173.5,209.3,208,174.7,250.7,174.7"
           id="path898" /><path
           class="st0"
           d="M400.5,387.3H528v58.4h1.8c17.7-33.6,61-69.1,125.8-69.1c134.6,0,159.5,88.6,159.5,203.7V815H682.2V607.1     c0-49.7-0.9-113.4-69.1-113.4c-69.2,0-79.8,54-79.8,109.8v211.6H400.5V387.3z"
           id="path900" /></g></g></g></svg>
